<svg width="52" height="50" viewBox="0 0 52 50" fill="none" xmlns="http://www.w3.org/2000/svg">
<path d="M50.0168 21.7718L49.6111 21.5583V19.0387C49.6039 18.2634 49.3158 17.517 48.8001 16.938C48.2844 16.359 47.5762 15.9867 46.8069 15.8902C46.0376 15.7937 45.2594 15.9796 44.6167 16.4133C43.974 16.847 43.5104 17.4991 43.3121 18.2486L41.07 17.0743V14.7682C41.0636 14.0058 40.7854 13.2708 40.2855 12.6952C39.7856 12.1196 39.0968 11.7411 38.3429 11.6279C37.589 11.5147 36.8194 11.6741 36.1725 12.0775C35.5256 12.4809 35.0438 13.1018 34.8137 13.8287L31.9098 12.3126V11.6934C32.0903 9.85902 31.9059 8.00704 31.3671 6.24429C30.8284 4.48153 29.9461 2.84286 28.7709 1.42279L28.5147 1.1025C28.2043 0.755629 27.8242 0.478146 27.3992 0.28817C26.9742 0.0981944 26.514 0 26.0485 0C25.583 0 25.1227 0.0981944 24.6977 0.28817C24.2728 0.478146 23.8927 0.755629 23.5822 1.1025L23.326 1.40143C22.1622 2.82642 21.2914 4.46734 20.7637 6.22991C20.2361 7.99248 20.0619 9.84195 20.2512 11.672V12.2913L17.3473 13.8073C17.0789 13.1331 16.5896 12.57 15.9595 12.2103C15.3293 11.8505 14.5957 11.7154 13.8787 11.827C13.1617 11.9387 12.5039 12.2905 12.0129 12.8248C11.522 13.3591 11.227 14.0443 11.1764 14.7682V17.0956L9.04111 18.27C8.93917 17.4205 8.50397 16.6464 7.83123 16.1178C7.15849 15.5892 6.30333 15.3495 5.45387 15.4515C4.60441 15.5534 3.83024 15.9886 3.30166 16.6613C2.77308 17.3341 2.53339 18.1892 2.63532 19.0387V21.5583L2.20827 21.7718C1.6901 22.0426 1.25655 22.4508 0.955202 22.9518C0.653859 23.4528 0.496383 24.0271 0.500063 24.6117V27.5797C0.500063 27.8629 0.612545 28.1345 0.812765 28.3347C1.01298 28.5349 1.28454 28.6474 1.56769 28.6474H1.71716L21.6605 25.8075L22.6854 36.1208L12.9486 40.9892C12.4153 41.2527 11.9664 41.6605 11.6532 42.1663C11.3399 42.672 11.1747 43.2555 11.1764 43.8504V48.9324C11.1764 49.2155 11.2889 49.4871 11.4891 49.6873C11.6893 49.8875 11.9608 50 12.244 50H12.5856L23.7104 46.2846L23.9879 49.0391C24.0145 49.3034 24.1386 49.5483 24.336 49.7259C24.5334 49.9036 24.79 50.0013 25.0556 50H27.1908C27.4564 50.0013 27.713 49.9036 27.9104 49.7259C28.1078 49.5483 28.2319 49.3034 28.2585 49.0391L28.536 46.2206L39.6608 50H40.0024C40.2856 50 40.5571 49.8875 40.7573 49.6873C40.9576 49.4871 41.07 49.2155 41.07 48.9324V43.8504C41.0717 43.2555 40.9065 42.672 40.5932 42.1663C40.28 41.6605 39.8311 41.2527 39.2978 40.9892L29.5823 36.1208L30.6073 25.8075L50.5292 28.6474H50.6787C50.9619 28.6474 51.2334 28.5349 51.4336 28.3347C51.6339 28.1345 51.7463 27.8629 51.7463 27.5797V24.6117C51.7456 24.0254 51.5839 23.4505 51.279 22.9498C50.974 22.449 50.5374 22.0415 50.0168 21.7718ZM13.3116 14.7682C13.3116 14.485 13.4241 14.2135 13.6243 14.0132C13.8246 13.813 14.0961 13.7005 14.3793 13.7005C14.6624 13.7005 14.934 13.813 15.1342 14.0132C15.3344 14.2135 15.4469 14.485 15.4469 14.7682L13.3116 15.9639V14.7682ZM4.77059 19.0387C4.77059 18.7555 4.88307 18.484 5.08329 18.2838C5.28351 18.0835 5.55506 17.9711 5.83822 17.9711C6.12137 17.9711 6.39293 18.0835 6.59315 18.2838C6.79337 18.484 6.90585 18.7555 6.90585 19.0387V19.3163L4.77059 20.4266V19.0387ZM2.63532 26.3413V24.6117C2.6348 24.4197 2.68609 24.231 2.7838 24.0657C2.88151 23.9003 3.02201 23.7644 3.19049 23.6722L12.7351 18.6757L13.8454 18.0992L20.5502 14.5974L21.447 23.6722L2.63532 26.3413ZM13.3116 47.4377V43.8504C13.3112 43.6503 13.3671 43.4542 13.4728 43.2843C13.5785 43.1144 13.7298 42.9776 13.9095 42.8896L22.9417 38.3842L23.5182 44.064L13.3116 47.4377ZM38.3369 42.8682C38.5166 42.9563 38.6679 43.093 38.7736 43.2629C38.8793 43.4328 38.9352 43.629 38.9348 43.8291V47.4377L28.7496 44.0426L29.3261 38.3628L38.3369 42.8682ZM28.5788 24.3768L26.1232 47.8647L23.7744 24.3768L22.3865 11.5653C22.2247 9.99845 22.3774 8.41508 22.8358 6.90808C23.2941 5.40107 24.0488 4.00078 25.0556 2.78935L25.3118 2.49042C25.412 2.36952 25.5376 2.2722 25.6797 2.20541C25.8218 2.13861 25.9769 2.10398 26.1339 2.10398C26.2909 2.10398 26.446 2.13861 26.5881 2.20541C26.7302 2.2722 26.8558 2.36952 26.956 2.49042L27.2122 2.81071C28.2125 4.02117 28.9618 5.41868 29.4164 6.92175C29.871 8.42481 30.0217 10.0033 29.8599 11.5653L28.5788 24.3768ZM45.3406 19.0387C45.3406 18.7555 45.453 18.484 45.6533 18.2838C45.8535 18.0835 46.125 17.9711 46.4082 17.9711C46.6913 17.9711 46.9629 18.0835 47.1631 18.2838C47.3633 18.484 47.4758 18.7555 47.4758 19.0387V20.4266L46.6858 20.1063L45.3406 19.3163V19.0387ZM36.7995 14.7682C36.7995 14.485 36.912 14.2135 37.1122 14.0132C37.3124 13.813 37.584 13.7005 37.8671 13.7005C38.1503 13.7005 38.4218 13.813 38.6221 14.0132C38.8223 14.2135 38.9348 14.485 38.9348 14.7682V15.9639L38.3582 15.665L36.7995 14.8536V14.7682ZM49.6111 26.3413L30.7994 23.6509L31.6962 14.576L37.5468 17.6294L39.4899 18.6543L45.789 21.9426L47.9242 23.117L48.8851 23.6295C49.0576 23.7188 49.2024 23.8536 49.304 24.0191C49.4056 24.1847 49.4601 24.3748 49.4616 24.569L49.6111 26.3413ZM25.0556 7.29476C24.7724 7.29476 24.5009 7.40724 24.3006 7.60746C24.1004 7.80768 23.9879 8.07923 23.9879 8.36239C23.9879 8.64554 24.1004 8.9171 24.3006 9.11732C24.5009 9.31754 24.7724 9.43002 25.0556 9.43002H27.1908C27.474 9.43002 27.7455 9.31754 27.9458 9.11732C28.146 8.9171 28.2585 8.64554 28.2585 8.36239C28.2585 8.07923 28.146 7.80768 27.9458 7.60746C27.7455 7.40724 27.474 7.29476 27.1908 7.29476H25.0556Z" fill="#FE5208"/>
</svg>
