<svg width="53" height="50" viewBox="0 0 53 50" fill="none" xmlns="http://www.w3.org/2000/svg">
<path fill-rule="evenodd" clip-rule="evenodd" d="M26.3137 2.75534e-05C26.3083 0.00104783 26.3029 0.00212297 26.2975 0.00325288C26.2563 0.00548425 26.2154 0.0108757 26.175 0.0193797C26.1626 0.021241 26.1502 0.023392 26.1379 0.0258306C26.1314 0.0278991 26.125 0.0300495 26.1185 0.0322812C26.0995 0.0375019 26.0807 0.0434192 26.0621 0.0500209C26.0556 0.0520894 26.0492 0.0542397 26.0427 0.0564715C26.0319 0.061606 26.0211 0.066983 26.0105 0.0725984C25.9969 0.0786751 25.9834 0.0851285 25.9702 0.0919507L13.6976 5.36543C13.5234 5.3966 13.3643 5.48423 13.2448 5.61479C13.1253 5.74536 13.0521 5.91162 13.0364 6.08792C13.0358 6.09436 13.0353 6.10081 13.0348 6.10727C13.0348 6.10942 13.0348 6.11157 13.0348 6.11372C13.0298 6.16521 13.0298 6.21705 13.0348 6.26854V21.7713L1.18802 26.8642C1.0802 26.8833 0.977406 26.9242 0.885909 26.9844C0.794412 27.0445 0.716129 27.1227 0.655833 27.2141C0.65144 27.2205 0.647139 27.2269 0.642932 27.2335C0.641854 27.2345 0.640779 27.2356 0.639707 27.2367C0.638628 27.2378 0.637553 27.2388 0.636481 27.2399C0.575254 27.3313 0.533368 27.4342 0.5134 27.5424C0.493431 27.6505 0.495803 27.7616 0.520368 27.8689V43.7974C0.520348 43.8006 0.520348 43.8038 0.520368 43.807C0.520348 43.8103 0.520348 43.8135 0.520368 43.8167C0.520705 43.8366 0.521781 43.8565 0.523593 43.8764C0.535156 44.0253 0.587873 44.1681 0.675864 44.2889C0.763855 44.4096 0.88366 44.5035 1.02191 44.5602L13.3525 49.8578C13.4913 49.9533 13.6566 50.003 13.825 49.9998C13.9931 50.0039 14.1584 49.9554 14.2975 49.8611L26.3266 44.6924L38.3524 49.8578C38.4912 49.9533 38.6564 50.003 38.8249 49.9998C38.993 50.0039 39.1582 49.9554 39.2974 49.8611L51.6312 44.5602C51.7883 44.4965 51.9213 44.3849 52.0113 44.2413C52.1013 44.0977 52.1438 43.9294 52.1328 43.7603V27.8656C52.1583 27.7532 52.1595 27.6365 52.1361 27.5236C52.1127 27.4106 52.0654 27.304 51.9973 27.2109C51.9371 27.1214 51.8596 27.0448 51.7693 26.9858C51.679 26.9268 51.5777 26.8866 51.4716 26.8674L39.6474 21.7842V6.25241C39.6517 6.19868 39.6506 6.14466 39.6441 6.09114C39.6288 5.91456 39.5558 5.74793 39.4362 5.61704C39.3167 5.48615 39.1574 5.39829 38.9829 5.36705L26.7007 0.0854999C26.6179 0.0435942 26.5284 0.0163152 26.4362 0.00486565C26.4217 0.00393596 26.4072 0.00339813 26.3927 0.00325288C26.3664 0.000885868 26.34 -0.000190508 26.3137 2.75534e-05ZM26.3395 1.68851L28.2795 2.52227L17.8164 7.01844L15.8812 6.18629L26.3395 1.68851ZM30.3212 3.39796L32.8209 4.47201L22.0771 9.09396C21.889 9.16575 21.7345 9.30535 21.644 9.48532C21.5536 9.66529 21.5338 9.87258 21.5885 10.0664V14.798L20.9273 13.803C20.8183 13.6393 20.6532 13.5211 20.4631 13.4706C20.273 13.4201 20.0711 13.4408 19.8952 13.5289L18.9243 14.0159V8.29891L30.3212 3.39796ZM34.8625 5.35092L36.7994 6.18307L26.3395 10.6808L24.3994 9.8487L34.8625 5.35092ZM14.6475 7.41193L17.3117 8.55533V15.3238C17.3115 15.4615 17.3467 15.597 17.4137 15.7173C17.4808 15.8375 17.5776 15.9386 17.6948 16.0109C17.812 16.0832 17.9458 16.1243 18.0834 16.1302C18.221 16.1361 18.3579 16.1066 18.4809 16.0446L19.9806 15.2883L21.674 17.8428C21.7499 17.9962 21.8726 18.1214 22.0245 18.2004C22.1763 18.2794 22.3493 18.308 22.5185 18.2821C22.6876 18.2563 22.8442 18.1773 22.9655 18.0565C23.0868 17.9358 23.1665 17.7796 23.1931 17.6106C23.1942 17.6063 23.1953 17.602 23.1963 17.5977C23.1995 17.5746 23.2016 17.5515 23.2028 17.5283C23.2028 17.524 23.2028 17.5197 23.2028 17.5154C23.2041 17.4891 23.2041 17.4627 23.2028 17.4364V11.0889L25.5331 12.0936V26.4626L14.6475 21.7858V7.41193ZM38.0347 7.41193V21.7713L27.1458 26.4513V12.0919L38.0347 7.41193ZM13.825 23.1856L15.7651 24.021L5.30198 28.5188L3.36515 27.6834L13.825 23.1856ZM38.841 23.1921L40.7649 24.021L30.3018 28.5188L28.3763 27.6898L38.841 23.1921ZM17.81 24.8983L20.308 25.9723L9.5627 30.5911C9.40785 30.658 9.27788 30.7718 9.19109 30.9164C9.1043 31.0611 9.06506 31.2293 9.07889 31.3974C9.07838 31.4141 9.07838 31.4307 9.07889 31.4474V36.3016L8.41769 35.3017C8.30864 35.1376 8.14327 35.0191 7.95282 34.9686C7.76236 34.9181 7.56001 34.9391 7.38396 35.0276L6.4099 35.5162V29.7976L17.81 24.8983ZM42.8098 24.8983L45.3095 25.9723L34.5626 30.5911C34.4104 30.6564 34.282 30.7669 34.1949 30.9077C34.1078 31.0485 34.0661 31.2128 34.0755 31.3781C34.0745 31.4012 34.0745 31.4243 34.0755 31.4474V36.2984L33.4143 35.3033C33.3053 35.1392 33.1399 35.0207 32.9495 34.9702C32.759 34.9197 32.5566 34.9407 32.3806 35.0292L31.4098 35.5162V29.7976L42.8098 24.8983ZM22.3481 26.8496L24.2881 27.6834L13.8283 32.1828L11.8914 31.3474L22.3481 26.8496ZM47.3479 26.8496L49.288 27.6834L38.8281 32.1828L36.8881 31.3474L47.3479 26.8496ZM2.13305 28.9074L4.79721 30.0524V36.8225C4.79763 36.9599 4.83317 37.095 4.90047 37.2149C4.96778 37.3347 5.0646 37.4354 5.18174 37.5073C5.29889 37.5792 5.43247 37.6199 5.5698 37.6257C5.70714 37.6314 5.84366 37.602 5.96641 37.5401L7.46943 36.7886L9.21113 39.4173C9.30657 39.5627 9.44645 39.6734 9.60992 39.7327C9.77339 39.7921 9.95168 39.7971 10.1182 39.7468C10.2847 39.6966 10.4305 39.5938 10.5338 39.454C10.6372 39.3141 10.6925 39.1445 10.6916 38.9706V32.586L13.0219 33.5874V47.9597L2.13305 43.2813V28.909V28.9074ZM27.1329 28.9074L29.7971 30.0524V36.8225C29.7975 36.9599 29.833 37.095 29.9003 37.2149C29.9676 37.3347 30.0645 37.4354 30.1816 37.5073C30.2987 37.5792 30.4323 37.6199 30.5697 37.6257C30.707 37.6314 30.8435 37.602 30.9663 37.5401L32.4661 36.7886L34.1658 39.3528C34.2416 39.4976 34.3596 39.616 34.5041 39.6922C34.6487 39.7685 34.813 39.799 34.9753 39.7798C35.1375 39.7606 35.2902 39.6925 35.4129 39.5845C35.5356 39.4766 35.6226 39.3339 35.6624 39.1754C35.6672 39.1594 35.6715 39.1433 35.6753 39.127C35.6765 39.12 35.6776 39.1131 35.6785 39.1061C35.6831 39.0794 35.6863 39.0524 35.6882 39.0254C35.6882 39.0227 35.6882 39.02 35.6882 39.0174C35.6896 38.9905 35.6896 38.9636 35.6882 38.9367V32.586L38.0185 33.5874V47.9597L27.1329 43.2797V28.9074ZM50.5201 28.9074V43.2797L39.6312 47.9613V33.5891L50.5201 28.909V28.9074ZM25.5202 28.9107V43.2797L14.6346 47.9613V33.5891L25.5202 28.9107ZM45.0305 38.9641C44.9303 38.969 44.8318 38.9925 44.7402 39.0335L41.6213 40.372C41.5239 40.4138 41.4356 40.4744 41.3616 40.5504C41.2876 40.6263 41.2293 40.716 41.19 40.8145C41.1507 40.913 41.1312 41.0182 41.1325 41.1242C41.1339 41.2302 41.1561 41.3349 41.198 41.4324C41.2398 41.5298 41.3004 41.618 41.3763 41.692C41.4522 41.766 41.542 41.8243 41.6405 41.8636C41.7389 41.9029 41.8442 41.9225 41.9502 41.9211C42.0562 41.9197 42.1609 41.8975 42.2583 41.8557L45.3756 40.5139C45.5493 40.4403 45.6916 40.3082 45.7779 40.1405C45.8642 39.9728 45.889 39.7802 45.848 39.5961C45.8069 39.412 45.7027 39.2481 45.5533 39.133C45.404 39.0178 45.219 38.9586 45.0305 38.9658V38.9641ZM47.1915 41.3864V41.3896C47.0915 41.3935 46.993 41.4159 46.9012 41.4557L41.6277 43.6442C41.4297 43.7265 41.2725 43.8841 41.1907 44.0824C41.1089 44.2806 41.1092 44.5032 41.1915 44.7013C41.2738 44.8993 41.4315 45.0565 41.6297 45.1383C41.828 45.2201 42.0506 45.2198 42.2486 45.1375L47.5221 42.9394C47.6978 42.8681 47.8427 42.7373 47.9315 42.5698C48.0202 42.4023 48.0471 42.2089 48.0075 42.0235C47.9678 41.8382 47.8641 41.6727 47.7146 41.5562C47.5651 41.4397 47.3809 41.3796 47.1915 41.3864Z" fill="#FE5208"/>
</svg>
