<svg width="41" height="40" viewBox="0 0 41 40" fill="none" xmlns="http://www.w3.org/2000/svg">
<rect x="1" y="0.5" width="39" height="39" rx="19.5" stroke="white"/>
<path fill-rule="evenodd" clip-rule="evenodd" d="M11.75 13.75C11.75 13.087 12.0134 12.4511 12.4822 11.9822C12.9511 11.5134 13.587 11.25 14.25 11.25H15.3933C16.11 11.25 16.735 11.7383 16.9092 12.4333L17.83 16.1192C17.9046 16.4175 17.8895 16.7312 17.7867 17.021C17.6838 17.3108 17.4977 17.5638 17.2517 17.7483L16.1742 18.5567C16.0617 18.6408 16.0375 18.7642 16.0692 18.85C16.5395 20.129 17.2822 21.2906 18.2458 22.2542C19.2094 23.2178 20.371 23.9605 21.65 24.4308C21.7358 24.4625 21.8583 24.4383 21.9433 24.3258L22.7517 23.2483C22.9362 23.0023 23.1892 22.8162 23.479 22.7133C23.7688 22.6105 24.0825 22.5954 24.3808 22.67L28.0667 23.5908C28.7617 23.765 29.25 24.39 29.25 25.1075V26.25C29.25 26.913 28.9866 27.5489 28.5178 28.0178C28.0489 28.4866 27.413 28.75 26.75 28.75H24.875C17.6267 28.75 11.75 22.8733 11.75 15.625V13.75Z" fill="white"/>
</svg>
