<svg width="20" height="21" viewBox="0 0 20 21" fill="none" xmlns="http://www.w3.org/2000/svg">
<path fill-rule="evenodd" clip-rule="evenodd" d="M1.875 10.5C1.875 6.0125 5.5125 2.375 10 2.375C14.4875 2.375 18.125 6.0125 18.125 10.5C18.125 14.9875 14.4875 18.625 10 18.625C5.5125 18.625 1.875 14.9875 1.875 10.5ZM13.0083 8.98833C13.0583 8.92171 13.0945 8.84576 13.1147 8.76496C13.135 8.68415 13.1388 8.60012 13.1261 8.5178C13.1134 8.43547 13.0844 8.35652 13.0407 8.28558C12.9971 8.21464 12.9396 8.15315 12.8719 8.10471C12.8041 8.05627 12.7273 8.02187 12.6461 8.00352C12.5648 7.98518 12.4807 7.98326 12.3987 7.99789C12.3167 8.01251 12.2385 8.04338 12.1686 8.08868C12.0987 8.13398 12.0385 8.19279 11.9917 8.26167L9.295 12.0367L7.94167 10.6833C7.82319 10.5729 7.66648 10.5128 7.50456 10.5157C7.34265 10.5185 7.18816 10.5841 7.07365 10.6986C6.95914 10.8132 6.89354 10.9676 6.89069 11.1296C6.88783 11.2915 6.94793 11.4482 7.05833 11.5667L8.93333 13.4417C8.99749 13.5058 9.07483 13.5552 9.15999 13.5864C9.24515 13.6176 9.33608 13.6299 9.42647 13.6224C9.51686 13.615 9.60455 13.588 9.68344 13.5432C9.76233 13.4985 9.83054 13.4371 9.88333 13.3633L13.0083 8.98833Z" fill="white"/>
</svg>
