<svg width="48" height="50" viewBox="0 0 48 50" fill="none" xmlns="http://www.w3.org/2000/svg">
<path d="M1.46154 0C0.930769 0 0.5 0.430769 0.5 0.961538C0.5 1.49231 0.930769 1.92308 1.46154 1.92308H7.70027C8.30604 1.92308 8.8329 2.33371 8.98483 2.92218L17.4809 36.0126C17.8501 37.4511 19.1476 38.4578 20.6322 38.4578H41.3316C41.8624 38.4578 42.2931 38.027 42.2931 37.4962C42.2931 36.9655 41.8624 36.5347 41.3316 36.5347H20.6322C20.0264 36.5347 19.4939 36.1221 19.3439 35.5356L17.7701 29.3945H38.7324C40.1343 29.3945 41.3719 28.5036 41.8161 27.1747L47.1609 11.1478C47.4955 10.144 47.3294 9.07776 46.7102 8.21815C46.0929 7.36046 45.1312 6.86599 44.0735 6.86599H12.0535C12.0304 6.86599 12.0127 6.87909 11.9896 6.88101L10.8478 2.44141C10.4786 1.00294 9.18489 0 7.70027 0H1.46154ZM12.4779 8.78906H44.0735C44.5062 8.78906 44.8995 8.98927 45.1514 9.3412C45.4034 9.69312 45.472 10.1297 45.3355 10.5394L44.2688 13.7357H26.6456C26.1148 13.7357 25.684 14.1665 25.684 14.6973C25.684 15.228 26.1148 15.6588 26.6456 15.6588H43.6303L41.9814 20.6055H28.9367C28.406 20.6055 27.9752 21.0362 27.9752 21.567C27.9752 22.0978 28.406 22.5285 28.9367 22.5285H41.3391L39.9907 26.5625C39.8118 27.1087 39.3036 27.4715 38.7324 27.4715H17.2743L12.4779 8.78906ZM20.9214 41.2109C18.4983 41.2109 16.5269 43.1824 16.5269 45.6055C16.5269 48.0305 18.4964 50 20.9214 50C23.3464 50 25.3197 48.0305 25.3197 45.6055C25.3197 43.1824 23.3464 41.2109 20.9214 41.2109ZM39.2395 41.2109C36.8164 41.2109 34.8412 43.1824 34.8412 45.6055C34.8412 48.0305 36.8145 50 39.2395 50C41.6645 50 43.634 48.0305 43.634 45.6055C43.634 43.1824 41.6645 41.2109 39.2395 41.2109ZM20.9214 43.134C22.2849 43.134 23.3966 44.242 23.3966 45.6055C23.3966 46.9689 22.2849 48.0769 20.9214 48.0769C19.558 48.0769 18.45 46.9689 18.45 45.6055C18.45 44.242 19.558 43.134 20.9214 43.134ZM39.2395 43.134C40.6029 43.134 41.7109 44.242 41.7109 45.6055C41.7109 46.9689 40.6029 48.0769 39.2395 48.0769C37.876 48.0769 36.7643 46.9689 36.7643 45.6055C36.7643 44.242 37.876 43.134 39.2395 43.134Z" fill="#FE5208"/>
</svg>
