<svg width="51" height="50" viewBox="0 0 51 50" fill="none" xmlns="http://www.w3.org/2000/svg">
<path d="M48.1562 46.875H42.7656V18.75H45.0312C45.4457 18.75 45.8431 18.5854 46.1361 18.2924C46.4291 17.9993 46.5938 17.6019 46.5938 17.1875V14.8438C46.5938 14.4293 46.4291 14.0319 46.1361 13.7389C45.8431 13.4459 45.4457 13.2812 45.0312 13.2812V12.2266C45.0349 12.1876 45.0349 12.1484 45.0312 12.1094V3.90625C45.0312 3.28465 44.7843 2.68851 44.3448 2.24897C43.9052 1.80943 43.3091 1.5625 42.6875 1.5625H8.3125C7.6909 1.5625 7.09476 1.80943 6.65522 2.24897C6.21568 2.68851 5.96875 3.28465 5.96875 3.90625V13.2812H5.1875C4.7731 13.2812 4.37567 13.4459 4.08265 13.7389C3.78962 14.0319 3.625 14.4293 3.625 14.8438V17.1875C3.625 17.6019 3.78962 17.9993 4.08265 18.2924C4.37567 18.5854 4.7731 18.75 5.1875 18.75H8.23437V46.875H2.84375C2.63655 46.875 2.43784 46.9573 2.29132 47.1038C2.14481 47.2503 2.0625 47.4491 2.0625 47.6562C2.0625 47.8634 2.14481 48.0622 2.29132 48.2087C2.43784 48.3552 2.63655 48.4375 2.84375 48.4375H48.1562C48.3634 48.4375 48.5622 48.3552 48.7087 48.2087C48.8552 48.0622 48.9375 47.8634 48.9375 47.6562C48.9375 47.4491 48.8552 47.2503 48.7087 47.1038C48.5622 46.9573 48.3634 46.875 48.1562 46.875ZM7.53125 3.90625C7.53125 3.69905 7.61356 3.50034 7.76007 3.35382C7.90659 3.20731 8.1053 3.125 8.3125 3.125H42.6875C42.8947 3.125 43.0934 3.20731 43.2399 3.35382C43.3864 3.50034 43.4688 3.69905 43.4688 3.90625V9.375H7.53125V3.90625ZM7.53125 10.9375H43.4688V13.2812H7.53125V10.9375ZM5.1875 14.8438H45.0312V17.1875H5.1875V14.8438ZM25.5 28.7734C25.6545 28.7734 25.8056 28.8193 25.934 28.9051C26.0625 28.9909 26.1626 29.113 26.2218 29.2557C26.2809 29.3985 26.2964 29.5556 26.2662 29.7071C26.2361 29.8586 26.1617 29.9979 26.0524 30.1071C25.9432 30.2164 25.804 30.2908 25.6524 30.3209C25.5009 30.3511 25.3438 30.3356 25.201 30.2765C25.0583 30.2173 24.9363 30.1172 24.8504 29.9887C24.7646 29.8603 24.7188 29.7092 24.7188 29.5547C24.7188 29.3475 24.8011 29.1488 24.9476 29.0023C25.0941 28.8557 25.2928 28.7734 25.5 28.7734ZM13.7812 24.8672V23.4375H37.2188V24.8672H13.7812ZM37.2188 21.875H13.7812V18.75H37.2188V21.875ZM9.79687 18.75H12.2188V46.875H9.79687V18.75ZM17.1875 46.875V42.6172C17.1875 42.41 17.2698 42.2113 17.4163 42.0648C17.5628 41.9182 17.7615 41.8359 17.9688 41.8359H18.4141V42.6172C18.4141 43.0316 18.5787 43.429 18.8717 43.722C19.1647 44.0151 19.5622 44.1797 19.9766 44.1797H20.7578C21.1722 44.1797 21.5696 44.0151 21.8627 43.722C22.1557 43.429 22.3203 43.0316 22.3203 42.6172V41.8359H22.7656C22.9728 41.8359 23.1715 41.9182 23.3181 42.0648C23.4646 42.2113 23.5469 42.41 23.5469 42.6172V46.875H17.1875ZM25.8906 36.0156H25.1094V35.2344H25.8906V36.0156ZM25.1094 37.5781H25.8906C26.305 37.5781 26.7025 37.4135 26.9955 37.1205C27.2885 36.8275 27.4531 36.43 27.4531 36.0156V35.2344H27.8984C28.1056 35.2344 28.3044 35.3167 28.4509 35.4632C28.5974 35.6097 28.6797 35.8084 28.6797 36.0156V40.2734H22.3203V36.0156C22.3203 35.8084 22.4026 35.6097 22.5491 35.4632C22.6956 35.3167 22.8944 35.2344 23.1016 35.2344H23.5469V36.0156C23.5469 36.43 23.7115 36.8275 24.0045 37.1205C24.2975 37.4135 24.695 37.5781 25.1094 37.5781ZM30.5234 41.8359H31.3047V42.6172H30.5234V41.8359ZM26.1719 46.875H25.1094V42.6172C25.1065 42.3507 25.059 42.0867 24.9688 41.8359H26.3203C26.2239 42.0852 26.1736 42.3499 26.1719 42.6172V46.875ZM20.7578 41.8359V42.6172H19.9766V41.8359H20.7578ZM27.7344 46.875V42.6172C27.7344 42.41 27.8167 42.2113 27.9632 42.0648C28.1097 41.9182 28.3084 41.8359 28.5156 41.8359H28.9609V42.6172C28.9609 43.0316 29.1256 43.429 29.4186 43.722C29.7116 44.0151 30.109 44.1797 30.5234 44.1797H31.3047C31.7191 44.1797 32.1165 44.0151 32.4095 43.722C32.7026 43.429 32.8672 43.0316 32.8672 42.6172V41.8359H33.3125C33.5197 41.8359 33.7184 41.9182 33.8649 42.0648C34.0114 42.2113 34.0938 42.41 34.0938 42.6172V46.875H27.7344ZM35.6562 46.875V42.6172C35.6562 41.9956 35.4093 41.3994 34.9698 40.9599C34.5302 40.5204 33.9341 40.2734 33.3125 40.2734H30.2422V36.0156C30.2422 35.394 29.9953 34.7979 29.5557 34.3583C29.1162 33.9188 28.52 33.6719 27.8984 33.6719H23.1016C22.48 33.6719 21.8838 33.9188 21.4443 34.3583C21.0047 34.7979 20.7578 35.394 20.7578 36.0156V40.2734H17.9688C17.3471 40.2734 16.751 40.5204 16.3115 40.9599C15.8719 41.3994 15.625 41.9956 15.625 42.6172V46.875H13.7812V26.4297H24.7188V27.3438C24.1975 27.528 23.7582 27.8907 23.4784 28.3676C23.1987 28.8444 23.0965 29.4049 23.19 29.9498C23.2835 30.4947 23.5666 30.989 23.9893 31.3454C24.412 31.7018 24.9471 31.8972 25.5 31.8972C26.0529 31.8972 26.588 31.7018 27.0107 31.3454C27.4334 30.989 27.7165 30.4947 27.81 29.9498C27.9035 29.4049 27.8013 28.8444 27.5216 28.3676C27.2418 27.8907 26.8025 27.528 26.2812 27.3438V26.4297H37.2188V46.875H35.6562ZM38.7812 46.875V18.75H41.2031V46.875H38.7812Z" fill="#FE5208"/>
</svg>
